<svg width="1025" height="1025" viewBox="0 0 1025 1025" fill="none" xmlns="http://www.w3.org/2000/svg">
<rect width="1025" height="1025" fill="black"/>
<path d="M626.108 362.032C626.108 384.054 634.847 405.173 650.402 420.745C665.958 436.316 687.055 445.065 709.054 445.065C731.053 445.065 752.15 436.317 767.706 420.745C783.261 405.173 792 384.054 792 362.032C792 340.011 783.261 318.891 767.706 303.32C752.15 287.748 731.053 279 709.054 279C687.055 279 665.958 287.748 650.402 303.32C634.847 318.891 626.108 340.011 626.108 362.032ZM626.108 362.032L399.892 362.032M626.108 362.032C538.638 362.032 467.757 432.987 467.757 520.548L467.757 580.935M399.892 362.032C399.892 340.011 391.153 318.891 375.598 303.32C360.042 287.748 338.945 279 316.946 279C294.947 279 273.85 287.748 258.294 303.32C242.739 318.891 234 340.011 234 362.032C234 384.054 242.739 405.173 258.294 420.745C273.85 436.316 294.947 445.064 316.946 445.064C338.945 445.064 360.042 436.316 375.598 420.745C391.153 405.173 399.892 384.054 399.892 362.032ZM467.757 580.935C445.758 580.935 424.66 589.683 409.105 605.255C393.55 620.827 384.811 641.946 384.811 663.968C384.811 685.989 393.55 707.109 409.105 722.68C424.66 738.252 445.758 747 467.757 747C489.755 747 510.853 738.252 526.408 722.68C541.964 707.109 550.703 685.989 550.703 663.968C550.703 641.946 541.964 620.827 526.408 605.255C510.853 589.683 489.755 580.935 467.757 580.935Z" stroke="white" stroke-width="40" stroke-linecap="round" stroke-linejoin="round"/>
</svg>
