<svg width="598" height="508" viewBox="0 0 598 508" fill="none" xmlns="http://www.w3.org/2000/svg">
<path d="M412.108 103.032C412.108 125.054 420.847 146.173 436.402 161.745C451.958 177.316 473.055 186.065 495.054 186.065C517.053 186.065 538.15 177.317 553.706 161.745C569.261 146.173 578 125.054 578 103.032C578 81.0107 569.261 59.8911 553.706 44.3196C538.15 28.748 517.053 20 495.054 20C473.055 20 451.958 28.748 436.402 44.3196C420.847 59.8911 412.108 81.0107 412.108 103.032ZM412.108 103.032L185.892 103.032M412.108 103.032C324.638 103.032 253.757 173.987 253.757 261.548L253.757 321.935M185.892 103.032C185.892 81.0107 177.153 59.8911 161.598 44.3196C146.042 28.748 124.945 20 102.946 20C80.9473 20 59.8497 28.748 44.2943 44.3196C28.7389 59.8911 20 81.0107 20 103.032C20 125.054 28.7389 146.173 44.2943 161.745C59.8497 177.316 80.9473 186.064 102.946 186.064C124.945 186.064 146.042 177.316 161.598 161.745C177.153 146.173 185.892 125.054 185.892 103.032ZM253.757 321.935C231.758 321.935 210.66 330.683 195.105 346.255C179.55 361.827 170.811 382.946 170.811 404.968C170.811 426.989 179.55 448.109 195.105 463.68C210.66 479.252 231.758 488 253.757 488C275.755 488 296.853 479.252 312.408 463.68C327.964 448.109 336.703 426.989 336.703 404.968C336.703 382.946 327.964 361.827 312.408 346.255C296.853 330.683 275.755 321.935 253.757 321.935Z" stroke="white" stroke-width="40" stroke-linecap="round" stroke-linejoin="round"/>
</svg>
